<svg xmlns="http://www.w3.org/2000/svg" width="28" height="33" viewBox="0 0 28 33">
    <g fill="#F17F29" fill-rule="evenodd">
        <path d="M14.974 24.451l.61 3.966h-3.667l.61-3.966A2.743 2.743 0 0 1 11 22a2.751 2.751 0 0 1 5.5 0c0 1.076-.625 2-1.526 2.451zm10.693-9.784H1.833A1.834 1.834 0 0 0 0 16.5v14.667C0 32.179.821 33 1.833 33h23.834a1.834 1.834 0 0 0 1.833-1.833V16.5a1.834 1.834 0 0 0-1.833-1.833zM9.167 12.833v-8.25h9.166v8.25h4.584v-8.25A4.589 4.589 0 0 0 18.333 0H9.167a4.589 4.589 0 0 0-4.584 4.583v8.25h4.584"/>
    </g>
</svg>
