<svg xmlns="http://www.w3.org/2000/svg" xmlns:xlink="http://www.w3.org/1999/xlink" width="36" height="46" viewBox="0 0 36 46">
    <defs>
        <path id="a" d="M33 15.492c1.65 0 3 1.35 3 3V42.5c0 1.65-1.35 3-3 3H3c-1.65 0-3-1.35-3-3V18.492c0-1.65 1.35-3 3-3h6v-5.99C9 4.538 13.038.5 18 .5s9 4.038 9 9.002v5.99h6zM33 42.5V18.492h-6v.002H9v-.002H3V42.5h30zM12 9.502A6.008 6.008 0 0 1 18 3.5c3.309 0 6 2.692 6 6.002v5.99H12v-5.99zm6 14.992a3 3 0 0 1 3 3.001 2.988 2.988 0 0 1-1.5 2.585v4.917a1.5 1.5 0 1 1-3 0V30.08a2.988 2.988 0 0 1-1.5-2.585 3 3 0 0 1 3-3z"/>
    </defs>
    <g fill="none" fill-rule="evenodd">
        <mask id="b" fill="#fff">
            <use xlink:href="#a"/>
        </mask>
        <use fill="#fff" fill-opacity="0" xlink:href="#a"/>
        <g fill="#5ba63c" mask="url(#b)">
            <path d="M-6-1h48v48H-6z"/>
        </g>
    </g>
</svg>
